<svg xmlns="http://www.w3.org/2000/svg" height="480" width="479" style=""><rect id="backgroundrect" width="100%" height="100%" x="0" y="0" fill="none" stroke="none"/><g class="currentLayer" style=""><title>Layer 1</title><path d="m224.5 376c0 8.835938-7.164062 16-16 16s-16-7.164062-16-16 7.164062-16 16-16 16 7.164062 16 16zm0 0" id="svg_1" class="" fill-opacity="1" fill="#8f1d2c"/><path d="m392.5 80h-64v16h64c4.417969.003906 7.996094 3.582031 8 8v224h-384v-224c.003906-4.417969 3.582031-7.996094 8-8h64v-16h-64c-13.25.015625-23.984375 10.75-24 24v296c.015625 13.25 10.75 23.984375 24 24h144v40h-32v16h144v-16h-32v-40h144c13.25-.015625 23.984375-10.75 24-24v-296c-.015625-13.25-10.75-23.984375-24-24zm-160 384h-48v-40h48zm168-64c-.003906 4.417969-3.582031 7.996094-8 8h-368c-4.417969-.003906-7.996094-3.582031-8-8v-56h384zm0 0" id="svg_2" class="" fill-opacity="1" fill="#8f1d2c"/><path d="m128.5 0c-13.25.015625-23.984375 10.75-24 24v264c.015625 13.25 10.75 23.984375 24 24h160c13.25-.015625 23.984375-10.75 24-24v-264c-.015625-13.25-10.75-23.984375-24-24zm168 288c-.003906 4.417969-3.582031 7.996094-8 8h-160c-4.417969-.003906-7.996094-3.582031-8-8v-56h176zm0-264v192h-176v-192c.003906-4.417969 3.582031-7.996094 8-8h160c4.417969.003906 7.996094 3.582031 8 8zm0 0" id="svg_3" class="" fill-opacity="1" fill="#8f1d2c"/><path d="m224.5 264c0 8.835938-7.164062 16-16 16s-16-7.164062-16-16 7.164062-16 16-16 16 7.164062 16 16zm0 0" id="svg_4" class="" fill-opacity="1" fill="#8f1d2c"/><path d="m192.5 32h32v16h-32zm0 0" id="svg_5" class=""/><path d="m192.5,32 h32 v16 h-32 zm0,0 " class="" id="svg_6" fill-opacity="1" fill="#8f1d2c"/></g></svg>