<svg xmlns="http://www.w3.org/2000/svg" height="424" width="424" style=""><rect id="backgroundrect" width="100%" height="100%" x="0" y="0" fill="none" stroke="none"/><g class="currentLayer" style=""><title>Layer 1</title><path d="m163.8604907161827,286.98995397158814 c-1.601562,0 -3.214843,-0.5507810000000003 -4.53125,-1.6718740000000007 l-45.296874,-38.570313 c-1.5625,-1.332031 -2.460938,-3.2773440000000003 -2.460938,-5.332031 c0,-2.050782 0.902344,-3.9960940000000003 2.460938,-5.328125 l45.296874,-38.570313 c2.941407,-2.507812 7.359376,-2.1523440000000003 9.867188,0.789063 c2.5039059999999997,2.945312 2.1523440000000003,7.363281 -0.792969,9.867187 l-39.035156,33.242188 l39.035156,33.242187 c2.945313,2.507813 3.296875,6.925781 0.792969,9.867188 c-1.386719,1.6289060000000002 -3.3554690000000003,2.464843 -5.3359380000000005,2.464843 zm0,0 " id="svg_1" class="" fill-opacity="1" fill="#8f1d2c"/><path d="m253.85379531315613,286.98995397158814 c-1.9804689999999994,0 -3.9492190000000003,-0.835937 -5.332032,-2.464843 c-2.507812,-2.941407 -2.1523440000000003,-7.359375 0.789063,-9.867188 l39.035156,-33.242187 l-39.035156,-33.242188 c-2.941407,-2.5039059999999997 -3.296875,-6.921875 -0.789063,-9.867187 c2.5039059999999997,-2.941407 6.925782,-3.296875 9.863282,-0.789063 l45.296874,38.570313 c1.5625,1.332031 2.460938,3.277343 2.460938,5.328125 c0,2.054687 -0.8984380000000004,4 -2.460938,5.332031 l-45.296874,38.570313 c-1.316407,1.1210930000000001 -2.929688,1.6718740000000007 -4.53125,1.6718740000000007 zm0,0 " id="svg_2" class="" fill-opacity="1" fill="#8f1d2c"/><path d="m193.10770131315613,315.91964197158813 c-0.4804690000000002,0 -0.9648440000000007,-0.05078100000000003 -1.453125,-0.15234400000000015 c-3.78125,-0.7968750000000004 -6.203125,-4.511718 -5.40625,-8.292968 l28.230469,-134.035157 c0.7968740000000004,-3.78125 4.5078119999999995,-6.203125 8.292968,-5.40625 c3.78125,0.7968750000000004 6.203125,4.507813 5.40625,8.292969 l-28.230468,134.035156 c-0.6953130000000004,3.296875 -3.601563,5.558594 -6.839844,5.558594 zm0,0 " id="svg_3" class="" fill-opacity="1" fill="#8f1d2c"/><path d="m371.9191175461355,393.51448352579166 h-325.5525434958457 c-25.564814534572857,0 -46.36657437668106,-22.176949445554005 -46.36657437668106,-49.4409942998397 v-294.63249498134587 c0,-27.259935992078567 20.8017598421082,-49.4409942998397 46.36657437668106,-49.4409942998397 h325.5525434958457 c25.564814534572857,0 46.36657437668106,22.181058307761134 46.36657437668106,49.4409942998397 v294.63249498134587 c0,27.264044854285697 -20.8017598421082,49.4409942998397 -46.36657437668106,49.4409942998397 zm-325.5525434958457,-378.78737889596664 c-17.950091216062074,0 -32.55525434958457,15.57358500040224 -32.55525434958457,34.71388961478107 v294.63249498134587 c0,19.14030461437883 14.6051631335225,34.71388961478107 32.55525434958457,34.71388961478107 h325.5525434958457 c17.950091216062074,0 32.55525434958457,-15.57358500040224 32.55525434958457,-34.71388961478107 v-294.63249498134587 c0,-19.14030461437883 -14.6051631335225,-34.71388961478107 -32.55525434958457,-34.71388961478107 zm0,0 " id="svg_4" class="" fill-opacity="1" fill="#8f1d2c"/><path d="m405.7695388912031,107.5184150233707 h-398.3962231874466 c-3.757739252575159,0 -6.801886737346649,-2.1098535806556344 -6.801886737346649,-4.7142855525016785 c0,-2.6018020739771126 3.04414748477149,-4.7142855525016785 6.801886737346649,-4.7142855525016785 h398.3962231874466 c3.757739252575159,0 6.801886737346649,2.112483478524566 6.801886737346649,4.7142855525016785 c0,2.604431971846044 -3.04414748477149,4.7142855525016785 -6.801886737346649,4.7142855525016785 zm0,0 " id="svg_5" class="" fill-opacity="1" fill="#8f1d2c"/><path d="m120.17299059697342,78.59375 c-12.210937,0 -22.152343,-9.941406 -22.152343,-22.152344 c0,-12.214844 9.941406,-22.152344 22.152343,-22.152344 c12.214844,0 22.152344,9.9375 22.152344,22.152344 c0,12.210938 -9.9375,22.152344 -22.152344,22.152344 zm0,-30.304688 c-4.492187,0 -8.152343,3.65625 -8.152343,8.152344 s3.660156,8.152344 8.152343,8.152344 c4.496094,0 8.152344,-3.65625 8.152344,-8.152344 s-3.65625,-8.152344 -8.152344,-8.152344 zm0,0 " id="svg_6" class="" fill-opacity="1" fill="#8f1d2c"/><path d="m51.539062 78.378906c-12.214843 0-22.152343-9.9375-22.152343-22.152344 0-12.214843 9.9375-22.152343 22.152343-22.152343 12.214844 0 22.152344 9.9375 22.152344 22.152343 0 12.214844-9.9375 22.152344-22.152344 22.152344zm0-30.304687c-4.492187 0-8.152343 3.660156-8.152343 8.152343 0 4.496094 3.660156 8.152344 8.152343 8.152344 4.496094 0 8.152344-3.65625 8.152344-8.152344 0-4.492187-3.65625-8.152343-8.152344-8.152343zm0 0" id="svg_7" class="" fill-opacity="1" fill="#8f1d2c"/><path d="m188.23549059697342,78.804688 c-12.210937,0 -22.148437,-9.9375 -22.148437,-22.152344 c0,-12.210938 9.9375,-22.148438 22.148437,-22.148438 c12.214844,0 22.152344,9.9375 22.152344,22.148438 c0,12.214844 -9.9375,22.152344 -22.152344,22.152344 zm0,-30.304688 c-4.492187,0 -8.148437,3.65625 -8.148437,8.152344 s3.65625,8.152344 8.148437,8.152344 c4.496094,0 8.152344,-3.65625 8.152344,-8.152344 s-3.65625,-8.152344 -8.152344,-8.152344 zm0,0 " id="svg_8" class="" fill-opacity="1" fill="#8f1d2c"/><path fill="#8f1d2c" fill-opacity="1" stroke="none" stroke-opacity="1" stroke-width="1" stroke-dasharray="none" stroke-linejoin="miter" stroke-linecap="butt" stroke-dashoffset="" fill-rule="nonzero" opacity="1" marker-start="" marker-mid="" marker-end="" d="M171.57096347851416,165.99996949945185L292.71382062137127,294.5713980708803" id="svg_9"/><path fill="#8f1d2c" fill-opacity="1" stroke="none" stroke-opacity="1" stroke-width="1" stroke-dasharray="none" stroke-linejoin="miter" stroke-linecap="butt" stroke-dashoffset="" fill-rule="nonzero" opacity="1" marker-start="" marker-mid="" marker-end="" d="M292.71382062137127,294.5713980708803L291.57096347851416,292.85711235659466" id="svg_11"/><path fill="#8f1d2c" fill-opacity="1" stroke="none" stroke-opacity="1" stroke-width="1" stroke-dasharray="none" stroke-linejoin="miter" stroke-linecap="butt" stroke-dashoffset="" fill-rule="nonzero" opacity="1" marker-start="" marker-mid="" marker-end="" d="M166.428106335657,243.142826642309L309.85667776422844,258.5713980708804" id="svg_14"/><path fill="#8f1d2c" fill-opacity="1" stroke="none" stroke-opacity="1" stroke-width="1" stroke-dasharray="none" stroke-linejoin="miter" stroke-linecap="butt" stroke-dashoffset="" fill-rule="nonzero" opacity="1" marker-start="" marker-mid="" marker-end="" id="svg_10" d="M97.85667776422845,148.85711235659468 " style="color: rgb(143, 29, 44);"/><path fill="#8f1d2c" fill-opacity="1" stroke="none" stroke-opacity="1" stroke-width="1" stroke-dasharray="none" stroke-linejoin="miter" stroke-linecap="butt" stroke-dashoffset="" fill-rule="nonzero" opacity="1" marker-start="" marker-mid="" marker-end="" id="svg_12" d="M 419.5709634785141 209.42854092802327 C 419.5709634785141 209.42854092802327 418.428106335657 170.5713980708804 418.428106335657 170.5713980708804" style="color: rgb(143, 29, 44);" class=""/></g></svg>