<svg xmlns="http://www.w3.org/2000/svg" height="935" version="1.1" width="935.00112" style=""><rect id="backgroundrect" width="100%" height="100%" x="0" y="0" fill="none" stroke="none"/>

<g class="currentLayer" style=""><title>Layer 1</title><g id="surface1" class="selected" fill-opacity="1" fill="#8f1d2c">
<path d="M79.05301319394684,936.0647321939468 L749.0842631939469,936.0647321939468 C792.0803571939468,936.0139511939468 826.9397321939468,901.1662951939469 826.9944191939468,858.1545761939468 L826.9944191939468,546.5139511939468 L795.8264511939468,546.5139511939468 L795.8264511939468,858.1545761939468 C795.8264511939468,883.9709821939468 774.8928571939468,904.8967631939469 749.0842631939469,904.8967631939469 L79.05301319394684,904.8967631939469 C53.22879519394684,904.8967631939469 32.30691919394684,883.9709821939468 32.30691919394684,858.1545761939468 L32.30691919394684,172.54910719394684 C32.30691919394684,146.72879519394684 53.22879519394684,125.80301319394684 79.05301319394684,125.80301319394684 L546.5139511939468,125.80301319394684 L546.5139511939468,94.63113819394684 L79.05301319394684,94.63113819394684 C36.04520119394684,94.68582619394684 1.1897321939468384,129.53348219394684 1.1428571939468384,172.54910719394684 L1.1428571939468384,858.1545761939468 C1.1897321939468384,901.1662951939469 36.04520119394684,936.0139511939468 79.05301319394684,936.0647321939468 zM79.05301319394684,936.0647321939468 " style="stroke: none; fill-rule: nonzero; fill-opacity: 1;" id="svg_1" fill="#8f1d2c"/>
<path d="M63.46707619394684,156.96707619394684 L94.63113819394684,156.96707619394684 L94.63113819394684,188.12723219394684 L63.46707619394684,188.12723219394684 zM63.46707619394684,156.96707619394684 " style="stroke: none; fill-rule: nonzero; fill-opacity: 1;" id="svg_2" fill="#8f1d2c"/>
<path d="M125.79910719394684,156.96707619394684 L156.96316919394684,156.96707619394684 L156.96316919394684,188.12723219394684 L125.79910719394684,188.12723219394684 zM125.79910719394684,156.96707619394684 " style="stroke: none; fill-rule: nonzero; fill-opacity: 1;" id="svg_3" fill="#8f1d2c"/>
<path d="M188.12332619394684,156.96707619394684 L219.28738819394684,156.96707619394684 L219.28738819394684,188.12723219394684 L188.12332619394684,188.12723219394684 zM188.12332619394684,156.96707619394684 " style="stroke: none; fill-rule: nonzero; fill-opacity: 1;" id="svg_4" fill="#8f1d2c"/>
<path d="M63.46707619394684,219.29129519394684 L499.76785719394684,219.29129519394684 L499.76785719394684,250.45535719394684 L63.46707619394684,250.45535719394684 zM63.46707619394684,219.29129519394684 " style="stroke: none; fill-rule: nonzero; fill-opacity: 1;" id="svg_5" fill="#8f1d2c"/>
<path d="M892.2483261939468,137.93973219394684 L881.0998881939469,68.98270119394684 C880.0256691939468,62.36551319394684 874.8420761939468,57.17410719394684 868.2209821939468,56.09988819394684 L799.2678571939468,44.95535719394684 L742.6155131939469,4.088169193946838 C737.1662951939469,0.16238819394683848 729.8264511939468,0.16238819394683848 724.3733261939468,4.088169193946838 L667.7209821939468,44.95535719394684 L598.7717631939469,56.09988819394684 C592.1506691939468,57.17410719394684 586.9592631939469,62.36551319394684 585.8811381939469,68.98270119394684 L574.7405131939469,137.93973219394684 L533.8811381939469,194.59598219394684 C529.9514511939468,200.03348219394684 529.9514511939468,207.38504519394684 533.8811381939469,212.82254519394684 L574.7405131939469,269.48660719394684 L585.8811381939469,338.43191919394684 C586.8498881939469,343.94754519394684 590.7014511939468,348.5217631939468 595.9866071939468,350.38504519394684 L548.1506691939468,446.06082619394687 C545.7287951939469,450.88895119394687 545.9905131939469,456.6311381939468 548.8342631939469,461.21707619394687 C551.6702011939468,465.81082619394687 556.6936381939469,468.60379519394684 562.0920761939468,468.60379519394684 L616.0881691939468,468.60379519394684 L642.5686381939469,508.42020119394687 C645.4748881939469,512.7678571939468 650.3655131939469,515.3655131939469 655.5881691939468,515.3459821939468 L656.5491071939468,515.3459821939468 C662.0998881939469,515.0061381939469 667.0452011939468,511.73660719394684 669.5295761939468,506.76785719394684 L722.0530131939469,401.60379519394684 L724.3733261939468,403.2873881939468 C729.8264511939468,407.21316919394684 737.1662951939469,407.21316919394684 742.6155131939469,403.2873881939468 L744.9358261939468,401.60379519394684 L797.4631691939468,506.68582619394687 C799.9436381939469,511.65066919394684 804.8811381939469,514.9241071939468 810.4162951939469,515.2756691939468 L811.4084821939468,515.3459821939468 C816.6077011939468,515.3459821939468 821.4748881939469,512.7483261939469 824.3694191939468,508.42020119394687 L850.9045761939468,468.60379519394684 L904.9045761939468,468.60379519394684 C910.3069191939468,468.6311381939468 915.3577011939468,465.8498881939468 918.2209821939468,461.25223219394684 C921.0725451939469,456.65066919394684 921.3420761939468,450.90066919394684 918.9241071939468,446.06082619394687 L871.0842631939469,350.38504519394684 C876.3616071939468,348.5217631939468 880.2170761939468,343.94754519394684 881.1780131939469,338.43191919394684 L892.3225451939469,269.48660719394684 L933.1936381939469,212.82254519394684 C937.1272321939468,207.38504519394684 937.1272321939468,200.03348219394684 933.1936381939469,194.59598219394684 zM653.6584821939468,468.79910719394684 L637.3772321939468,444.37332619394687 C634.4866071939468,440.04910719394684 629.6272321939468,437.43582619394687 624.4241071939468,437.43582619394687 L587.3030131939469,437.43582619394687 L627.9827011939468,356.04129519394684 L667.7209821939468,362.4592631939468 L688.4162951939469,377.38895119394687 L696.4553571939468,383.20145119394687 zM879.6858261939468,437.43582619394687 L842.5725451939469,437.43582619394687 C837.3655131939469,437.43582619394687 832.4944191939468,440.04910719394684 829.6116071939468,444.37332619394687 L813.3342631939469,468.79910719394684 L770.5373881939469,383.20145119394687 L778.5686381939469,377.38895119394687 L799.2678571939468,362.4592631939468 L839.0061381939469,356.04129519394684 zM864.8342631939469,254.23270119394684 C863.4123881939469,256.18973219394684 862.4670761939468,258.45145119394687 862.0842631939469,260.85379519394684 L852.1194191939468,322.3342631939468 L845.3577011939468,323.4436381939468 L790.6819191939468,332.27566919394684 C788.2756691939468,332.66629519394684 786.0100451939469,333.60770119394687 784.0373881939469,335.04129519394684 L764.5178571939468,349.06473219394684 L733.5022321939468,371.48270119394687 L702.5022321939468,349.12332619394687 L682.9827011939468,335.0998881939468 C681.0100451939469,333.67020119394687 678.7444191939468,332.7248881939468 676.3381691939468,332.33816919394684 L621.6623881939469,323.51004519394684 L614.9006691939468,322.3967631939468 L604.9514511939468,260.9123881939468 C604.5608261939468,258.5217631939468 603.6077011939468,256.25223219394684 602.1858261939468,254.29129519394684 L565.7209821939468,203.71316919394684 L602.1545761939468,153.18973219394684 C603.5803571939468,151.23660719394684 604.5295761939468,148.96316919394684 604.9084821939468,146.57254519394684 L614.8655131939469,85.08816919394684 L676.3498881939469,75.13113819394684 C678.7483261939468,74.74051319394684 681.0100451939469,73.79520119394684 682.9827011939468,72.36551319394684 L733.5022321939468,35.93582619394684 L784.0100451939469,72.36551319394684 C785.9748881939469,73.79520119394684 788.2444191939468,74.74051319394684 790.6428571939468,75.13113819394684 L852.1194191939468,85.08816919394684 L862.0842631939469,146.57254519394684 C862.4670761939468,148.96316919394684 863.4123881939469,151.23660719394684 864.8342631939469,153.18973219394684 L901.2639511939468,203.71316919394684 zM864.8342631939469,254.23270119394684 " style="stroke: none; fill-rule: nonzero; fill-opacity: 1;" id="svg_6" fill="#8f1d2c"/>
<path d="M733.5022321939468,94.63113819394684 C673.2561381939469,94.63113819394684 624.4241071939468,143.46316919394684 624.4241071939468,203.71316919394684 C624.4241071939468,263.95145119394687 673.2561381939469,312.78348219394684 733.5022321939468,312.78348219394684 C793.7366071939468,312.78348219394684 842.5725451939469,263.95145119394687 842.5725451939469,203.71316919394684 C842.4905131939469,143.50223219394684 793.7014511939468,94.70926319394684 733.5022321939468,94.63113819394684 zM733.5022321939468,281.62332619394687 C690.4670761939468,281.62332619394687 655.5881691939468,246.73660719394684 655.5881691939468,203.71316919394684 C655.5881691939468,160.68582619394684 690.4670761939468,125.80301319394684 733.5022321939468,125.80301319394684 C776.5256691939468,125.80301319394684 811.4084821939468,160.68582619394684 811.4084821939468,203.71316919394684 C811.3537951939469,246.71707619394684 776.5022321939468,281.56473219394684 733.5022321939468,281.62332619394687 zM733.5022321939468,281.62332619394687 " style="stroke: none; fill-rule: nonzero; fill-opacity: 1;" id="svg_7" fill="#8f1d2c"/>
<path d="M741.6780131939469,159.28348219394684 C737.0842631939469,156.45535719394684 731.3537951939469,156.18582619394684 726.5295761939468,158.59598219394684 L695.3694191939468,174.18191919394684 L709.2991071939468,202.07254519394684 L717.9202011939468,197.76004519394684 L717.9202011939468,250.45535719394684 L749.0842631939469,250.45535719394684 L749.0842631939469,172.54910719394684 C749.0686381939469,167.14285719394684 746.2795761939468,162.12332619394684 741.6780131939469,159.28348219394684 zM741.6780131939469,159.28348219394684 " style="stroke: none; fill-rule: nonzero; fill-opacity: 1;" id="svg_8" fill="#8f1d2c"/>
<path d="M219.28738819394684,312.78348219394684 C219.28738819394684,304.18191919394684 212.31863819394684,297.20145119394687 203.70926319394684,297.20145119394687 L79.05301319394684,297.20145119394687 C70.44363819394684,297.20145119394687 63.46707619394684,304.18191919394684 63.46707619394684,312.78348219394684 L63.46707619394684,437.43582619394687 C63.46707619394684,446.04129519394684 70.44363819394684,453.0217631939468 79.05301319394684,453.0217631939468 L203.70926319394684,453.0217631939468 C212.31863819394684,453.0217631939468 219.28738819394684,446.04129519394684 219.28738819394684,437.43582619394687 zM188.12332619394684,421.85770119394687 L94.63113819394684,421.85770119394687 L94.63113819394684,328.3655131939468 L188.12332619394684,328.3655131939468 zM188.12332619394684,421.85770119394687 " style="stroke: none; fill-rule: nonzero; fill-opacity: 1;" id="svg_9" fill="#8f1d2c"/>
<path d="M250.45926319394684,297.20145119394687 L359.53348219394684,297.20145119394687 L359.53348219394684,328.3655131939468 L250.45926319394684,328.3655131939468 zM250.45926319394684,297.20145119394687 " style="stroke: none; fill-rule: nonzero; fill-opacity: 1;" id="svg_10" fill="#8f1d2c"/>
<path d="M250.45926319394684,359.52566919394684 L515.3498881939469,359.52566919394684 L515.3498881939469,390.6936381939468 L250.45926319394684,390.6936381939468 zM250.45926319394684,359.52566919394684 " style="stroke: none; fill-rule: nonzero; fill-opacity: 1;" id="svg_11" fill="#8f1d2c"/>
<path d="M250.45926319394684,421.85770119394687 L390.6936381939468,421.85770119394687 L390.6936381939468,453.0217631939468 L250.45926319394684,453.0217631939468 zM250.45926319394684,421.85770119394687 " style="stroke: none; fill-rule: nonzero; fill-opacity: 1;" id="svg_12" fill="#8f1d2c"/>
<path d="M421.85770119394687,421.85770119394687 L515.3498881939469,421.85770119394687 L515.3498881939469,453.0217631939468 L421.85770119394687,453.0217631939468 zM421.85770119394687,421.85770119394687 " style="stroke: none; fill-rule: nonzero; fill-opacity: 1;" id="svg_13" fill="#8f1d2c"/>
<path d="M219.28738819394684,515.3459821939468 C219.28738819394684,506.74441919394684 212.31863819394684,499.76785719394684 203.70926319394684,499.76785719394684 L79.05301319394684,499.76785719394684 C70.44363819394684,499.76785719394684 63.46707619394684,506.74441919394684 63.46707619394684,515.3459821939468 L63.46707619394684,640.0061381939469 C63.46707619394684,648.6116071939468 70.44363819394684,655.5920761939468 79.05301319394684,655.5920761939468 L203.70926319394684,655.5920761939468 C212.31863819394684,655.5920761939468 219.28738819394684,648.6116071939468 219.28738819394684,640.0061381939469 zM188.12332619394684,624.4280131939469 L94.63113819394684,624.4280131939469 L94.63113819394684,530.9280131939469 L188.12332619394684,530.9280131939469 zM188.12332619394684,624.4280131939469 " style="stroke: none; fill-rule: nonzero; fill-opacity: 1;" id="svg_14" fill="#8f1d2c"/>
<path d="M250.45926319394684,499.76785719394684 L359.53348219394684,499.76785719394684 L359.53348219394684,530.9280131939469 L250.45926319394684,530.9280131939469 zM250.45926319394684,499.76785719394684 " style="stroke: none; fill-rule: nonzero; fill-opacity: 1;" id="svg_15" fill="#8f1d2c"/>
<path d="M250.45926319394684,562.0920761939468 L608.8381691939468,562.0920761939468 L608.8381691939468,593.2639511939468 L250.45926319394684,593.2639511939468 zM250.45926319394684,562.0920761939468 " style="stroke: none; fill-rule: nonzero; fill-opacity: 1;" id="svg_16" fill="#8f1d2c"/>
<path d="M250.45926319394684,624.4280131939469 L390.6936381939468,624.4280131939469 L390.6936381939468,655.5920761939468 L250.45926319394684,655.5920761939468 zM250.45926319394684,624.4280131939469 " style="stroke: none; fill-rule: nonzero; fill-opacity: 1;" id="svg_17" fill="#8f1d2c"/>
<path d="M421.85770119394687,624.4280131939469 L608.8381691939468,624.4280131939469 L608.8381691939468,655.5920761939468 L421.85770119394687,655.5920761939468 zM421.85770119394687,624.4280131939469 " style="stroke: none; fill-rule: nonzero; fill-opacity: 1;" id="svg_18" fill="#8f1d2c"/>
<path d="M203.70926319394684,702.3381691939468 L79.05301319394684,702.3381691939468 C70.44363819394684,702.3381691939468 63.46707619394684,709.3147321939468 63.46707619394684,717.9162951939469 L63.46707619394684,842.5725451939469 C63.46707619394684,851.1780131939469 70.44363819394684,858.1545761939468 79.05301319394684,858.1545761939468 L203.70926319394684,858.1545761939468 C212.31863819394684,858.1545761939468 219.28738819394684,851.1780131939469 219.28738819394684,842.5725451939469 L219.28738819394684,717.9162951939469 C219.28738819394684,709.3147321939468 212.31863819394684,702.3381691939468 203.70926319394684,702.3381691939468 zM188.12332619394684,826.9944191939468 L94.63113819394684,826.9944191939468 L94.63113819394684,733.4983261939468 L188.12332619394684,733.4983261939468 zM188.12332619394684,826.9944191939468 " style="stroke: none; fill-rule: nonzero; fill-opacity: 1;" id="svg_19" fill="#8f1d2c"/>
<path d="M250.45926319394684,702.3381691939468 L359.53348219394684,702.3381691939468 L359.53348219394684,733.4983261939468 L250.45926319394684,733.4983261939468 zM250.45926319394684,702.3381691939468 " style="stroke: none; fill-rule: nonzero; fill-opacity: 1;" id="svg_20" fill="#8f1d2c"/>
<path d="M250.45926319394684,764.6623881939469 L608.8381691939468,764.6623881939469 L608.8381691939468,795.8264511939468 L250.45926319394684,795.8264511939468 zM250.45926319394684,764.6623881939469 " style="stroke: none; fill-rule: nonzero; fill-opacity: 1;" id="svg_21" fill="#8f1d2c"/>
<path d="M250.45926319394684,826.9944191939468 L390.6936381939468,826.9944191939468 L390.6936381939468,858.1545761939468 L250.45926319394684,858.1545761939468 zM250.45926319394684,826.9944191939468 " style="stroke: none; fill-rule: nonzero; fill-opacity: 1;" id="svg_22" fill="#8f1d2c"/>
<path d="M421.85770119394687,826.9944191939468 L608.8381691939468,826.9944191939468 L608.8381691939468,858.1545761939468 L421.85770119394687,858.1545761939468 zM421.85770119394687,826.9944191939468 " style="stroke: none; fill-rule: nonzero; fill-opacity: 1;" id="svg_23" fill="#8f1d2c"/>
</g></g></svg>