<?xml version="1.0" encoding="utf-8"?>
<!-- Generator: Adobe Illustrator 23.0.0, SVG Export Plug-In . SVG Version: 6.00 Build 0)  -->
<svg version="1.1" xmlns="http://www.w3.org/2000/svg" xmlns:xlink="http://www.w3.org/1999/xlink" x="0px" y="0px"
	 viewBox="0 0 800 600" style="enable-background:new 0 0 800 600;" xml:space="preserve">
<style type="text/css">
	.st0{fill:none;}
	.st1{font-family:'BebasNeueBook';}
	.st2{font-size:204.4951px;}
	.st3{font-family:'BebasNeueBold';}
	.st4{fill:none;stroke:#000000;stroke-width:2;stroke-miterlimit:10;}
	.st5{fill:none;stroke:#000000;stroke-width:3;stroke-miterlimit:10;}
	.st6{display:none;}
	.st7{display:inline;stroke:#000000;stroke-width:5;stroke-miterlimit:10;}
	.st8{display:inline;fill:none;stroke:#000000;stroke-width:5;stroke-miterlimit:10;}
	.st9{display:inline;fill:none;}
	.st10{display:inline;fill:#FFFFFF;}
</style>
<g id="Слой_4">
	<rect x="215.64" y="223.79" class="st0" width="553.36" height="152.42"/>
	<text transform="matrix(1 0 0 1 215.6367 366.9375)"><tspan x="0" y="0" class="st1 st2">LIFE</tspan><tspan x="234.76" y="0" class="st3 st2">BLOG</tspan></text>
	<line class="st4" x1="215.64" y1="295.5" x2="172.75" y2="295.5"/>
	<polyline class="st5" points="163.63,226.61 154.51,226.61 120.72,226.61 	"/>
	<line class="st5" x1="111.62" y1="286.4" x2="111.62" y2="235.73"/>
	<line class="st4" x1="163.63" y1="286.4" x2="163.63" y2="235.73"/>
	<line class="st5" x1="215.64" y1="364.41" x2="120.72" y2="364.41"/>
	<line class="st5" x1="111.62" y1="355.29" x2="111.62" y2="304.62"/>
	<line class="st5" x1="215.64" y1="226.61" x2="163.62" y2="226.61"/>
	<line class="st5" x1="102.5" y1="295.5" x2="52.61" y2="295.5"/>
	<path class="st5" d="M102.5,295.5c5.03,0,9.12-4.07,9.12-9.1"/>
	<path class="st5" d="M102.5,295.5c5.03,0,9.12,4.09,9.12,9.12"/>
	<path class="st5" d="M111.62,355.29c0,5.03,4.07,9.12,9.1,9.12"/>
	<path class="st5" d="M111.62,235.73c0-5.03,4.07-9.12,9.1-9.12"/>
	<path class="st4" d="M154.51,226.61c5.03,0,9.12,4.09,9.12,9.12"/>
	<path class="st4" d="M163.63,286.4c0,5.03,4.07,9.1,9.12,9.1"/>
	<circle class="st5" cx="41.81" cy="295.5" r="10.81"/>
</g>
<g id="Слой_1" class="st6">
	<path class="st7" d="M341.63,110.35v202.24c-34.89-20.18-58.37-57.91-58.37-101.12C283.26,168.26,306.74,130.53,341.63,110.35z"/>
	<path class="st8" d="M516.74,211.47c0,17.33-3.78,33.79-10.56,48.58c-18.43,40.22-59.05,68.16-106.18,68.16
		c-21.27,0-41.2-5.69-58.37-15.62V110.35c17.17-9.93,37.1-15.62,58.37-15.62c46.29,0,86.29,26.94,105.17,66
		C512.58,176.07,516.74,193.29,516.74,211.47z"/>
	<rect x="600.11" y="320.56" class="st9" width="0" height="2.67"/>
</g>
<g id="Слой_2" class="st6">
	<line class="st8" x1="400" y1="328.21" x2="400" y2="94.73"/>
</g>
<g id="Слой_3" class="st6">
	<line class="st8" x1="516.74" y1="211.47" x2="400" y2="211.47"/>
	<rect x="344.14" y="97.46" class="st10" width="2" height="46"/>
	<rect x="336.84" y="105.81" class="st10" width="2.56" height="212.59"/>
	<rect x="393.47" y="89.67" class="st10" width="4" height="250.6"/>
	<rect x="345.14" y="89.67" class="st10" width="50.33" height="41.56"/>
</g>
</svg>
